<?xml version="1.0" encoding="UTF-8"?>
<svg xmlns="http://www.w3.org/2000/svg" xmlns:xlink="http://www.w3.org/1999/xlink" width="140pt" height="140pt" viewBox="0 0 140 140" version="1.1">
<g id="surface1">
<path style=" stroke:none;fill-rule:evenodd;fill:rgb(0%,54.901961%,85.882353%);fill-opacity:1;" d="M 50.636719 96.042969 C 47.253906 92.734375 43.859375 89.328125 40.578125 86.035156 C 37.300781 82.746094 33.914062 79.34375 30.539062 76.046875 L 29.902344 75.425781 L 30.507812 74.773438 C 31.570312 73.636719 32.6875 72.53125 33.765625 71.464844 C 34.832031 70.410156 35.9375 69.320312 36.972656 68.210938 L 37.566406 67.570312 L 38.230469 68.136719 C 39.761719 69.449219 41.175781 70.894531 42.546875 72.296875 C 43.128906 72.894531 43.710938 73.484375 44.304688 74.074219 L 44.304688 38.53125 C 44.304688 31.410156 45.726562 26.605469 48.785156 23.390625 C 51.789062 20.230469 56.417969 18.59375 63.34375 18.226562 C 65.644531 18.109375 67.835938 18.046875 69.851562 18.046875 C 78.042969 18.046875 84.164062 19.058594 88.046875 21.054688 C 91.316406 22.734375 93.605469 25.132812 95.03125 28.375 C 96.425781 31.519531 96.976562 35.421875 96.722656 40.292969 L 96.671875 41.152344 L 80.679688 41.152344 L 80.765625 40.164062 C 81.121094 36.175781 80.539062 33.253906 79.027344 31.480469 C 77.980469 30.25 76.511719 29.578125 74.535156 29.4375 C 73.78125 29.382812 72.945312 29.355469 71.992188 29.355469 C 71.121094 29.355469 70.238281 29.378906 69.382812 29.398438 C 68.644531 29.417969 67.878906 29.4375 67.136719 29.4375 C 61.347656 29.46875 58.609375 31.890625 58.238281 37.277344 C 57.960938 41.3125 58.050781 45.425781 58.144531 49.777344 C 58.191406 52.019531 58.242188 54.332031 58.242188 56.710938 L 58.242188 71.25 C 58.242188 71.539062 58.214844 71.980469 58.183594 72.542969 C 58.160156 72.960938 58.121094 73.585938 58.101562 74.171875 C 58.152344 74.117188 58.203125 74.0625 58.257812 74.007812 C 58.390625 73.859375 58.460938 73.789062 58.507812 73.738281 C 59.160156 73.085938 59.8125 72.449219 60.445312 71.835938 C 61.703125 70.613281 62.886719 69.457031 64.039062 68.210938 L 64.65625 67.539062 L 65.324219 68.164062 C 66.460938 69.222656 67.566406 70.34375 68.636719 71.421875 C 69.6875 72.488281 70.78125 73.59375 71.890625 74.628906 L 72.570312 75.265625 L 71.921875 75.929688 C 68.613281 79.3125 65.207031 82.703125 61.914062 85.984375 C 58.625 89.265625 55.222656 92.652344 51.921875 96.023438 L 51.285156 96.675781 Z M 50.636719 96.042969 "/>
<path style=" stroke:none;fill-rule:evenodd;fill:rgb(0%,54.901961%,85.882353%);fill-opacity:1;" d="M 71.273438 121.953125 C 65.335938 121.953125 60.46875 121.859375 56.285156 120.710938 C 51.699219 119.449219 48.289062 117.101562 46.144531 113.734375 C 43.910156 110.234375 42.988281 105.539062 43.394531 99.769531 L 43.457031 98.925781 L 59.417969 98.925781 L 59.351562 99.898438 C 58.867188 106.886719 60.671875 110.207031 65.199219 110.648438 C 65.730469 110.699219 66.371094 110.726562 67.152344 110.726562 C 67.855469 110.726562 68.617188 110.703125 69.355469 110.683594 C 70.121094 110.664062 70.910156 110.640625 71.675781 110.640625 C 76.058594 110.640625 78.734375 110.207031 80.320312 107.90625 C 81.761719 105.800781 81.875 102.726562 81.875 98.621094 L 81.875 65.972656 C 80.53125 67.324219 79.089844 68.800781 77.683594 70.234375 C 77.128906 70.800781 76.582031 71.355469 76.058594 71.890625 L 75.472656 72.488281 L 74.828125 71.953125 C 73.476562 70.824219 72.253906 69.5625 71.066406 68.34375 C 70.152344 67.414062 69.214844 66.445312 68.234375 65.5625 L 67.542969 64.9375 L 68.1875 64.265625 C 73.011719 59.203125 78.054688 54.207031 82.933594 49.375 C 84.664062 47.660156 86.449219 45.898438 88.199219 44.148438 L 88.835938 43.515625 L 89.480469 44.140625 C 92.84375 47.429688 96.21875 50.820312 99.488281 54.097656 C 102.746094 57.371094 106.117188 60.753906 109.472656 64.039062 L 110.097656 64.644531 L 109.519531 65.289062 C 107.433594 67.628906 105.21875 69.847656 102.882812 71.929688 L 102.238281 72.5 L 101.628906 71.894531 C 101.007812 71.265625 100.363281 70.601562 99.734375 69.960938 C 98.4375 68.628906 97.109375 67.257812 95.8125 66.035156 L 95.8125 96.296875 C 95.8125 96.804688 95.8125 97.304688 95.816406 97.8125 C 95.828125 102.910156 95.839844 107.726562 94.550781 111.539062 C 93.1875 115.578125 90.324219 118.484375 86.046875 120.171875 C 81.882812 121.816406 76.46875 121.953125 71.273438 121.953125 Z M 71.273438 121.953125 "/>
</g>
</svg>
