<?xml version="1.0" encoding="UTF-8"?>
<svg xmlns="http://www.w3.org/2000/svg" xmlns:xlink="http://www.w3.org/1999/xlink" width="160pt" height="111pt" viewBox="0 0 160 111" version="1.1">
<g id="surface1">
<path style=" stroke:none;fill-rule:nonzero;fill:rgb(36.470588%,52.941176%,63.137255%);fill-opacity:1;" d="M 48.976562 89.644531 L 44.644531 89.644531 C 44.492188 82.324219 44.070312 75.445312 43.378906 69 L 43.339844 69 L 36.746094 89.644531 L 33.449219 89.644531 L 26.894531 69 L 26.855469 69 C 26.367188 75.1875 26.0625 82.070312 25.933594 89.644531 L 21.988281 89.644531 C 22.242188 80.433594 22.882812 71.800781 23.902344 63.742188 L 29.273438 63.742188 L 35.519531 82.773438 L 35.558594 82.773438 L 41.847656 63.742188 L 46.984375 63.742188 C 48.109375 73.179688 48.773438 81.816406 48.976562 89.644531 M 67.761719 70.535156 C 66 80.113281 63.671875 87.070312 60.785156 91.414062 C 58.535156 94.757812 56.070312 96.433594 53.382812 96.433594 C 52.667969 96.433594 51.785156 96.21875 50.738281 95.789062 L 50.738281 93.480469 C 51.25 93.550781 51.851562 93.59375 52.539062 93.59375 C 53.792969 93.59375 54.800781 93.25 55.570312 92.558594 C 56.488281 91.714844 56.949219 90.765625 56.949219 89.71875 C 56.949219 89 56.589844 87.53125 55.875 85.304688 L 51.121094 70.53125 L 55.378906 70.53125 L 58.789062 81.582031 C 59.558594 84.089844 59.875 85.84375 59.75 86.839844 C 61.613281 81.851562 62.917969 76.414062 63.660156 70.53125 L 67.761719 70.53125 Z M 67.761719 70.535156 "/>
<path style=" stroke:none;fill-rule:nonzero;fill:rgb(97.254902%,59.607843%,11.372549%);fill-opacity:1;" d="M 125.421875 89.644531 L 113.117188 89.644531 L 113.117188 63.742188 L 117.257812 63.742188 L 117.257812 86.453125 L 125.421875 86.453125 Z M 109.894531 90.269531 L 105.136719 87.917969 C 105.558594 87.570312 105.964844 87.195312 106.328125 86.761719 C 108.347656 84.382812 109.359375 80.867188 109.359375 76.210938 C 109.359375 67.644531 105.996094 63.355469 99.277344 63.355469 C 95.980469 63.355469 93.40625 64.445312 91.570312 66.621094 C 89.546875 69 88.539062 72.5 88.539062 77.132812 C 88.539062 81.6875 89.433594 85.027344 91.222656 87.144531 C 92.859375 89.0625 95.324219 90.023438 98.625 90.023438 C 99.855469 90.023438 100.984375 89.875 102.011719 89.570312 L 108.207031 93.179688 Z M 94.484375 84.460938 C 93.4375 82.773438 92.910156 80.0625 92.910156 76.328125 C 92.910156 69.808594 94.890625 66.542969 98.855469 66.542969 C 100.925781 66.542969 102.445312 67.324219 103.414062 68.882812 C 104.460938 70.570312 104.988281 73.257812 104.988281 76.9375 C 104.988281 83.515625 103.007812 86.800781 99.046875 86.800781 C 96.972656 86.804688 95.457031 86.023438 94.484375 84.460938 M 86.734375 82.464844 C 86.734375 84.660156 85.929688 86.460938 84.320312 87.875 C 82.710938 89.28125 80.550781 89.984375 77.847656 89.984375 C 75.316406 89.984375 72.859375 89.175781 70.484375 87.566406 L 71.597656 85.339844 C 73.640625 86.363281 75.492188 86.875 77.152344 86.875 C 78.714844 86.875 79.933594 86.527344 80.816406 85.84375 C 81.699219 85.152344 82.226562 84.1875 82.226562 82.964844 C 82.226562 81.425781 81.152344 80.113281 79.1875 79.011719 C 77.371094 78.015625 73.746094 75.929688 73.746094 75.929688 C 71.777344 74.496094 70.792969 72.957031 70.792969 70.417969 C 70.792969 68.320312 71.527344 66.625 72.996094 65.335938 C 74.46875 64.042969 76.363281 63.398438 78.691406 63.398438 C 81.09375 63.398438 83.277344 64.042969 85.246094 65.316406 L 84.246094 67.542969 C 82.5625 66.824219 80.902344 66.46875 79.265625 66.46875 C 77.9375 66.46875 76.914062 66.789062 76.203125 67.429688 C 75.484375 68.066406 75.039062 68.882812 75.039062 69.886719 C 75.039062 71.417969 76.136719 72.75 78.15625 73.871094 C 79.996094 74.871094 83.710938 76.992188 83.710938 76.992188 C 85.730469 78.421875 86.734375 79.949219 86.734375 82.464844 "/>
<path style=" stroke:none;fill-rule:nonzero;fill:rgb(36.470588%,52.941176%,63.137255%);fill-opacity:1;" d="M 130.617188 55.066406 C 128.113281 55.003906 126.175781 55.253906 124.550781 55.945312 C 124.082031 56.132812 123.335938 56.132812 123.269531 56.726562 C 123.523438 56.976562 123.550781 57.382812 123.773438 57.730469 C 124.148438 58.355469 124.800781 59.195312 125.398438 59.636719 C 126.054688 60.136719 126.710938 60.636719 127.402344 61.074219 C 128.617188 61.828125 129.996094 62.265625 131.179688 63.015625 C 131.871094 63.453125 132.558594 64.015625 133.25 64.488281 C 133.589844 64.738281 133.808594 65.144531 134.246094 65.300781 L 134.246094 65.203125 C 134.027344 64.921875 133.964844 64.515625 133.746094 64.203125 L 132.808594 63.296875 C 131.902344 62.078125 130.773438 61.011719 129.558594 60.136719 C 128.554688 59.445312 126.367188 58.507812 125.960938 57.355469 L 125.898438 57.289062 C 126.585938 57.226562 127.402344 56.976562 128.054688 56.785156 C 129.117188 56.503906 130.089844 56.566406 131.179688 56.289062 C 131.683594 56.160156 132.179688 56.003906 132.683594 55.847656 L 132.683594 55.566406 C 132.117188 55.003906 131.714844 54.253906 131.121094 53.722656 C 129.527344 52.34375 127.773438 51 125.960938 49.871094 C 124.988281 49.246094 123.742188 48.839844 122.707031 48.308594 C 122.335938 48.117188 121.707031 48.027344 121.488281 47.710938 C 120.925781 47.023438 120.609375 46.117188 120.203125 45.300781 C 119.300781 43.582031 118.421875 41.675781 117.640625 39.855469 C 117.078125 38.636719 116.734375 37.417969 116.046875 36.289062 C 112.824219 30.96875 109.324219 27.75 103.945312 24.585938 C 102.789062 23.929688 101.414062 23.648438 99.945312 23.300781 L 97.597656 23.179688 C 97.097656 22.957031 96.597656 22.363281 96.160156 22.082031 C 94.375 20.957031 89.78125 18.515625 88.46875 21.738281 C 87.625 23.773438 89.71875 25.777344 90.4375 26.808594 C 90.96875 27.527344 91.660156 28.34375 92.03125 29.15625 C 92.25 29.6875 92.3125 30.253906 92.535156 30.816406 C 93.035156 32.191406 93.5 33.722656 94.160156 35.007812 C 94.503906 35.664062 94.878906 36.351562 95.316406 36.945312 C 95.566406 37.292969 96.003906 37.445312 96.097656 38.011719 C 95.664062 38.632812 95.628906 39.574219 95.378906 40.359375 C 94.253906 43.894531 94.691406 48.273438 96.289062 50.871094 C 96.785156 51.65625 97.976562 53.378906 99.570312 52.71875 C 100.976562 52.152344 100.664062 50.371094 101.070312 48.808594 C 101.164062 48.429688 101.101562 48.179688 101.289062 47.933594 L 101.289062 47.996094 C 101.726562 48.871094 102.167969 49.714844 102.570312 50.589844 C 103.542969 52.125 105.230469 53.71875 106.636719 54.78125 C 107.386719 55.347656 107.980469 56.316406 108.917969 56.660156 L 108.917969 56.566406 L 108.855469 56.566406 C 108.667969 56.289062 108.386719 56.160156 108.140625 55.945312 C 107.574219 55.378906 106.949219 54.691406 106.511719 54.066406 C 105.203125 52.3125 104.042969 50.371094 103.011719 48.371094 C 102.507812 47.398438 102.074219 46.335938 101.667969 45.367188 C 101.480469 44.992188 101.480469 44.425781 101.164062 44.238281 C 100.695312 44.925781 100.007812 45.519531 99.664062 46.363281 C 99.070312 47.710938 99.007812 49.371094 98.789062 51.09375 L 98.664062 51.152344 C 97.667969 50.902344 97.320312 49.871094 96.945312 48.996094 C 96.007812 46.773438 95.851562 43.207031 96.664062 40.640625 C 96.878906 39.984375 97.820312 37.917969 97.445312 37.292969 C 97.257812 36.695312 96.632812 36.355469 96.289062 35.882812 C 95.886719 35.289062 95.441406 34.539062 95.160156 33.878906 C 94.410156 32.128906 94.035156 30.1875 93.226562 28.4375 C 92.847656 27.621094 92.195312 26.777344 91.664062 26.023438 C 91.066406 25.179688 90.410156 24.585938 89.941406 23.585938 C 89.785156 23.238281 89.566406 22.675781 89.816406 22.304688 C 89.878906 22.050781 90.003906 21.957031 90.253906 21.894531 C 90.660156 21.550781 91.816406 21.988281 92.222656 22.175781 C 93.382812 22.644531 94.351562 23.082031 95.320312 23.742188 C 95.757812 24.054688 96.226562 24.648438 96.789062 24.804688 L 97.445312 24.804688 C 98.445312 25.023438 99.570312 24.867188 100.511719 25.148438 C 102.167969 25.683594 103.667969 26.464844 105.011719 27.308594 C 109.109375 29.90625 112.488281 33.601562 114.765625 38.011719 C 115.140625 38.730469 115.300781 39.386719 115.640625 40.136719 C 116.300781 41.671875 117.113281 43.238281 117.769531 44.738281 C 118.425781 46.210938 119.050781 47.710938 119.988281 48.933594 C 120.457031 49.589844 122.335938 49.933594 123.179688 50.277344 C 123.804688 50.558594 124.773438 50.808594 125.335938 51.152344 C 126.402344 51.808594 127.460938 52.5625 128.460938 53.28125 C 128.960938 53.65625 130.523438 54.441406 130.617188 55.066406 M 98.722656 27.871094 C 98.289062 27.867188 97.859375 27.921875 97.441406 28.03125 L 97.441406 28.09375 L 97.503906 28.09375 C 97.753906 28.59375 98.191406 28.9375 98.503906 29.375 C 98.753906 29.878906 98.972656 30.375 99.222656 30.875 L 99.28125 30.8125 C 99.722656 30.5 99.941406 30 99.941406 29.25 C 99.75 29.027344 99.722656 28.8125 99.5625 28.59375 C 99.378906 28.277344 98.972656 28.125 98.722656 27.871094 "/>
<path style=" stroke:none;fill-rule:nonzero;fill:rgb(97.254902%,59.607843%,11.372549%);fill-opacity:1;" d="M 133.597656 89.640625 L 134.242188 89.640625 L 134.242188 86.464844 L 133.273438 86.464844 L 132.480469 88.632812 L 131.617188 86.464844 L 130.683594 86.464844 L 130.683594 89.640625 L 131.292969 89.640625 L 131.292969 87.222656 L 131.328125 87.222656 L 132.230469 89.640625 L 132.695312 89.640625 L 133.597656 87.222656 Z M 128.375 89.640625 L 129.0625 89.640625 L 129.0625 87.003906 L 129.960938 87.003906 L 129.960938 86.464844 L 127.441406 86.464844 L 127.441406 87.003906 L 128.375 87.003906 Z M 128.375 89.640625 "/>
</g>
</svg>
